<?xml version="1.0" standalone="no"?>
<!DOCTYPE svg PUBLIC "-//W3C//DTD SVG 20010904//EN"
 "http://www.w3.org/TR/2001/REC-SVG-20010904/DTD/svg10.dtd">
<svg version="1.0" xmlns="http://www.w3.org/2000/svg"
 width="260.000000pt" height="260.000000pt" viewBox="0 0 260.000000 260.000000"
 preserveAspectRatio="xMidYMid meet">
<metadata>
Created by potrace 1.14, written by Peter Selinger 2001-2017
</metadata>
<g transform="translate(0.000000,260.000000) scale(0.100000,-0.100000)"
fill="#000000" stroke="none">
<path d="M1100 2494 c-143 -25 -300 -83 -425 -158 -307 -183 -528 -521 -573
-876 -9 -68 -8 -269 1 -330 64 -434 349 -794 756 -954 221 -86 427 -105 681
-61 171 30 394 137 535 259 229 197 378 459 421 741 10 65 12 287 4 341 -35
215 -90 360 -197 517 -191 280 -451 451 -785 516 -114 22 -306 24 -418 5z"/>
</g>
</svg>
